<mxfile host="app.diagrams.net" modified="2023-02-17T04:38:55.866Z" agent="pan.baidu.com" etag="wi_6pu8SMyFYvVKPHsbj" version="20.8.20" type="github">
  <diagram name="Page-1" id="fAW7UrOOP40E0REhjQ_l">
    <mxGraphModel dx="2074" dy="1090" grid="0" gridSize="10" guides="1" tooltips="1" connect="1" arrows="1" fold="1" page="1" pageScale="1" pageWidth="850" pageHeight="1100" math="0" shadow="0">
      <root>
        <mxCell id="0" />
        <mxCell id="1" parent="0" />
        <mxCell id="PFCx8aL5gRS1s8ldHrEA-1" value="" style="rounded=0;whiteSpace=wrap;html=1;" vertex="1" parent="1">
          <mxGeometry x="20" y="7" width="120" height="60" as="geometry" />
        </mxCell>
        <mxCell id="PFCx8aL5gRS1s8ldHrEA-2" value="" style="rounded=0;whiteSpace=wrap;html=1;" vertex="1" parent="1">
          <mxGeometry x="30" y="17" width="120" height="60" as="geometry" />
        </mxCell>
        <mxCell id="PFCx8aL5gRS1s8ldHrEA-3" value="" style="rounded=0;whiteSpace=wrap;html=1;" vertex="1" parent="1">
          <mxGeometry x="40" y="27" width="120" height="60" as="geometry" />
        </mxCell>
        <mxCell id="PFCx8aL5gRS1s8ldHrEA-4" value="" style="rounded=0;whiteSpace=wrap;html=1;" vertex="1" parent="1">
          <mxGeometry x="50" y="37" width="120" height="60" as="geometry" />
        </mxCell>
        <mxCell id="PFCx8aL5gRS1s8ldHrEA-5" value="" style="rounded=0;whiteSpace=wrap;html=1;" vertex="1" parent="1">
          <mxGeometry x="60" y="47" width="120" height="60" as="geometry" />
        </mxCell>
        <mxCell id="PFCx8aL5gRS1s8ldHrEA-6" value="" style="rounded=0;whiteSpace=wrap;html=1;" vertex="1" parent="1">
          <mxGeometry x="70" y="57" width="120" height="60" as="geometry" />
        </mxCell>
        <mxCell id="PFCx8aL5gRS1s8ldHrEA-7" value="" style="rounded=0;whiteSpace=wrap;html=1;" vertex="1" parent="1">
          <mxGeometry x="80" y="67" width="120" height="60" as="geometry" />
        </mxCell>
        <mxCell id="PFCx8aL5gRS1s8ldHrEA-8" value="" style="rounded=0;whiteSpace=wrap;html=1;" vertex="1" parent="1">
          <mxGeometry x="90" y="77" width="120" height="60" as="geometry" />
        </mxCell>
        <mxCell id="PFCx8aL5gRS1s8ldHrEA-9" value="" style="rounded=0;whiteSpace=wrap;html=1;" vertex="1" parent="1">
          <mxGeometry x="100" y="87" width="120" height="60" as="geometry" />
        </mxCell>
        <mxCell id="PFCx8aL5gRS1s8ldHrEA-12" value="&lt;div style=&quot;text-align: left;&quot;&gt;&lt;span data-darkreader-inline-color=&quot;&quot; data-darkreader-inline-bgcolor=&quot;&quot; style=&quot;background-color: initial; color: rgb(0, 0, 0); border-color: var(--darkreader-border--border-color); --darkreader-inline-border:var(--darkreader-border--darkreader-border--border-color); --darkreader-inline-bgcolor: initial; --darkreader-inline-color:#e8e6e3; font-size: 46px;&quot; data-darkreader-inline-border=&quot;&quot;&gt;pyenv&lt;/span&gt;&lt;span data-darkreader-inline-color=&quot;&quot; data-darkreader-inline-bgcolor=&quot;&quot; style=&quot;background-color: initial; color: rgb(0, 0, 0); border-color: var(--darkreader-border--border-color); font-size: 46px; --darkreader-inline-border:var(--darkreader-border--darkreader-border--border-color); --darkreader-inline-bgcolor: initial; --darkreader-inline-color:#e8e6e3;&quot; data-darkreader-inline-border=&quot;&quot;&gt;&amp;nbsp;&lt;/span&gt;&lt;span data-darkreader-inline-color=&quot;&quot; data-darkreader-inline-bgcolor=&quot;&quot; style=&quot;background-color: initial; color: rgb(0, 0, 0); font-size: 46px; --darkreader-inline-bgcolor: initial; --darkreader-inline-color:#e8e6e3;&quot;&gt;To control PyThon versions&lt;/span&gt;&lt;/div&gt;" style="rounded=0;whiteSpace=wrap;html=1;verticalAlign=top;fillColor=#fff2cc;strokeColor=#d6b656;" vertex="1" parent="1">
          <mxGeometry x="9" y="270" width="773" height="659" as="geometry" />
        </mxCell>
        <mxCell id="PFCx8aL5gRS1s8ldHrEA-11" value="&lt;font style=&quot;font-size: 49px;&quot;&gt;pipenv To control Python virenvs&lt;br&gt;&lt;/font&gt;" style="rounded=0;whiteSpace=wrap;html=1;align=center;labelPosition=center;verticalLabelPosition=middle;verticalAlign=top;fillColor=#d5e8d4;strokeColor=#82b366;" vertex="1" parent="1">
          <mxGeometry x="10" y="400" width="750" height="530" as="geometry" />
        </mxCell>
        <mxCell id="PFCx8aL5gRS1s8ldHrEA-10" value="&lt;font style=&quot;font-size: 46px;&quot;&gt;saving pipenv locking time&lt;/font&gt;" style="rounded=0;whiteSpace=wrap;html=1;align=left;verticalAlign=top;fillColor=#e3c800;fontColor=#000000;strokeColor=#B09500;" vertex="1" parent="1">
          <mxGeometry x="20" y="513" width="695" height="409" as="geometry" />
        </mxCell>
        <mxCell id="PFCx8aL5gRS1s8ldHrEA-14" value="pip install *&lt;br&gt;not appear Pipfile" style="ellipse;whiteSpace=wrap;html=1;rounded=0;fontSize=49;fillColor=#647687;fontColor=#ffffff;strokeColor=#314354;" vertex="1" parent="1">
          <mxGeometry x="43" y="607" width="418" height="268" as="geometry" />
        </mxCell>
        <mxCell id="PFCx8aL5gRS1s8ldHrEA-16" value="pipenv install * &lt;br&gt;--skip-lock" style="rounded=1;whiteSpace=wrap;html=1;fontSize=46;fillColor=#76608a;fontColor=#ffffff;strokeColor=#432D57;" vertex="1" parent="1">
          <mxGeometry x="485" y="576" width="225" height="330" as="geometry" />
        </mxCell>
      </root>
    </mxGraphModel>
  </diagram>
</mxfile>
